<svg xmlns="http://www.w3.org/2000/svg" viewBox="0 0 243.78 336.26"><defs><style>.cls-1{fill:#5e1a02;}.cls-2{fill:#ce1d26;}.cls-3{fill:#d3a281;}.cls-4{fill:#4c0a0a;}.cls-5{fill:#deb89e;}.cls-6{fill:#e3c8b6;}.cls-7{fill:#fae9df;}.cls-8{fill:#7c5e47;}.cls-9{fill:#8d6b49;}.cls-10{fill:#c8ad95;}.cls-11{fill:#cecece;}.cls-12{fill:#dbacac;}.cls-13{fill:#fff;}.cls-14{fill:#969696;}.cls-15{fill:#686d75;}.cls-16{fill:#767e8b;}.cls-17{fill:#acb1b9;}.cls-18{fill:#b98562;}.cls-19{fill:#ccc;}</style></defs><title>Ресурс 1</title><g id="Слой_2" data-name="Слой 2"><g id="Режим_изоляции" data-name="Режим изоляции"><path class="cls-1" d="M165.26,44c4.17-1.55,5.48-4,4-7.19C168,33.08,161,27.85,148,21.23q6.5-9.19,6.37-14a6.1,6.1,0,0,0-3.11-5.56c-1.55-1-3.92-1.39-6.95-1.14a47.11,47.11,0,0,0-14.38,0q-21.09,2.82-39.8,23.78a56.76,56.76,0,0,0-3-9.48c-1.06-2.21-2-3.27-3.11-3.35-1.72-.9-3.19,0-4.25,2.7C78.3,17.63,77.48,28,77.4,45.34a31.2,31.2,0,0,0-5.07-5.23c-1.39-1.15-2.45-1.72-3.27-1.64-1.88-.33-3.11.57-3.51,2.78-.74,2.62,1.72,10.63,7.27,24.11q1.35,3.19,2.94,6.87a38,38,0,0,0,.82,14.14v-.08c1.88,6.78,6.21,10.3,12.91,10.54v5.88a2.28,2.28,0,0,0,.49,1.47,63.34,63.34,0,0,0,11.44,12.34l-3,12.1c-1.47,1.06-2.94,2.13-4.33,3.19a175.76,175.76,0,0,1-40.46,20.84,2,2,0,0,0-1.14.82L28.93,185.18c-.65-.25-1.31-.57-2-.82l-.08-.08c-1.14-.41-2.29-.82-3.35-1.22a2.36,2.36,0,0,0-1.31-.08,2.17,2.17,0,0,0-1.14.57L7.44,196.21a2.38,2.38,0,0,0-.25,3.35l4.41,5.64-11,14.14A2.23,2.23,0,0,0,0,221q2,40.21,41.27,50.26h.16a100,100,0,0,1,13.49,5.07h-.08c1.06.57,2,1.06,3.11,1.64,5.15,2.78,8.66,5.88,10.54,9.24l-.57,1.14H191.74l1.88-3.43a2.52,2.52,0,0,0,.25-1.55,2.76,2.76,0,0,0-.65-1.39l-1.47-1.47,20-9.4q41.56-18,29.18-58.11a1.71,1.71,0,0,0-.49-.82l-12.5-14.46,3.76-7.11a2,2,0,0,0,.25-1.39,3.62,3.62,0,0,0-.49-1.31l-9-11A2.64,2.64,0,0,0,221,176a2.78,2.78,0,0,0-1.64.24c-1.55.82-2.94,1.72-4.33,2.61l-22.31-30.24a2.52,2.52,0,0,0-1.31-.9,179.72,179.72,0,0,1-41.52-17.24l-4.9-2.94-2.53-10.05a39.13,39.13,0,0,0,9-18.55v-.82l-.74-5.56c3.35.08,5.88-.82,7.44-2.86,2.12-2.29,2.7-6.13,1.8-11.61a68.18,68.18,0,0,0-2.62-9.48c3.84-3.84,5.64-8,5.23-12.42-.25-3.43-1.8-7-4.74-10.71A24.7,24.7,0,0,0,165.26,44Zm16.43,168a2.3,2.3,0,0,0-.33,1.64,2.53,2.53,0,0,0,.74,1.47l8.25,7.52a2.69,2.69,0,0,0,1.8.65l9.4-.41,3.84,3.76a72.74,72.74,0,0,0-14.3,21.82c-3.84,8.17-9.15,13.65-15.94,16.51-5-7.44-8.25-17-10-28.69a197.79,197.79,0,0,0,8.66-32l9.4,5.23c-.57.82-1.06,1.63-1.55,2.45ZM45.2,225.71l10.05,4a2,2,0,0,0,1.55.08,2.53,2.53,0,0,0,1.31-.9l6.62-8.66a3.86,3.86,0,0,0,.49-1.23,2,2,0,0,0-.25-1.39c-.57-1.06-1.23-2-1.8-2.94L77,202.26a210,210,0,0,0,15.2,42.66l-4.66,20.92c-8.91-.25-17.74-5.07-26.64-14.47-5-11.2-10.38-19.61-16.26-25.26l.57-.41Z"/><path class="cls-1" d="M202.61,305.24a2.83,2.83,0,0,0-.65-1.31l-8.83-9.64a2,2,0,0,0-1.14-.73,2.38,2.38,0,0,0-1.31.08,1.6,1.6,0,0,0-1.14.74l-.33.33-.82-.41,3.35-6H67.92l-3.27,6.37a2.51,2.51,0,0,0-.16,1.72,2.74,2.74,0,0,0,1,1.39,46.09,46.09,0,0,1,4.17,3.27,7,7,0,0,0-2,2.29l-1-.74a2.05,2.05,0,0,0-1.64-.49,2.74,2.74,0,0,0-1.55.73c-3.43,3.35-5.48,8.09-6,14.22-.08,1.15-.16,2.37-.16,3.6a2.31,2.31,0,0,0,.33,1.23,2.61,2.61,0,0,0,1,.9,2.31,2.31,0,0,0,1.23.33C66.85,323,73,324.52,78,327.8l-2,6.94h0c1.12,0,2.24.09,3.45,0,2-.09,4-.35,6-.49a93.85,93.85,0,0,1,13.07.2c4.53.31,9,.11,13.55.06a99.89,99.89,0,0,1,13.07,1q2.09-4.5,4.34-9v.08q1.66,4.74,3.1,9.51c7,.29,14.14-.12,21.16-.42,4.7-.2,9.41-.41,14.11-.39,2.33,0,4.67.16,7,.16a15,15,0,0,0,4.39-.82L176.86,322l8.83,4.9a2.2,2.2,0,0,0,1.47.33,2.7,2.7,0,0,0,1.31-.57,3.19,3.19,0,0,0,.82-1.31c1.88-8.34,5.88-14.22,12.1-17.57a3.06,3.06,0,0,0,1-1.06A2.37,2.37,0,0,0,202.61,305.24Z"/><path class="cls-2" d="M229.49,189.43l-9-11c-2.13,1.22-4.17,2.45-6.13,3.76a99.46,99.46,0,0,0-27.62,26.56c-.08.08-.08.24-.16.33l8.42,6.87c.41-.57.74-1.23,1.14-1.8a65.34,65.34,0,0,1,24.68-21,68.79,68.79,0,0,1,8.66-3.68Z"/><path class="cls-3" d="M225,198l-4.17-4.9a65.34,65.34,0,0,0-24.68,21L222.87,202l11,13.4q8.7,39.84-39.07,54.27l-13.4,3.76,3.19,13.16-8.17,16,8.17,5.8,4.9-5.56h-4.33l4.58-5.07-2.37-1.31-6.46,6.37,4.17-7.6,6.37-11.6-3.84-3.92,23.13-10.87q39.6-17,27.87-55.17L225,198Z"/><path class="cls-4" d="M220.83,193.11,225,198l4.49-8.58a68.79,68.79,0,0,0-8.66,3.68Z"/><path class="cls-5" d="M205.71,223.43l3.19,3.19a51.55,51.55,0,0,1,15-9.89l-18.22,6.7Z"/><path class="cls-6" d="M205.71,223.43l18.22-6.7q-20.35,17.65-29.09,36.86a62.67,62.67,0,0,1-19.37,18.14l-3.76.33-2.61,4,6.13,36.21,7.93,5.15,12.59-16.67-4.41-4.82-1.64,1.88-4.58,5.07h4.33l-4.9,5.56-8.17-5.8,8.17-16-3.19-13.16,13.4-3.76q47.81-14.34,39.07-54.27l-11-13.4-26.73,12.1,6.37,6.21,3.19,3.11Z"/><path class="cls-7" d="M223.94,216.73a51.55,51.55,0,0,0-15,9.89c-6.13,5.8-11.36,13.4-15.61,22.8-4.41,9.56-10.79,15.69-19,18.47l-2.53,4.17,3.76-.33a62.67,62.67,0,0,0,19.37-18.14q8.7-19.24,29.09-36.86Z"/><path class="cls-8" d="M144.33,22.13q15.2-20.23,0-19.12a47.71,47.71,0,0,0-14.06-.08,27.88,27.88,0,0,1,4.9.82c10.38,2.45,11.93,9.15,4.66,20,15.53,7.44,19.78,13.89,12.67,19.53q33-.61-8.17-21.17Z"/><path class="cls-9" d="M139.84,23.76c7.27-10.87,5.72-17.57-4.66-20Q113.24,6.93,88.84,29.57q-6-21.33-9.07,22.72c-.65-.82-1.23-1.63-1.8-2.37Q64.61,36.8,77.23,64.06c3.68-.25,6.95,1.31,9.81,4.58l2.86-5.88c-3-5.64-3.92-12.42-2.7-20.19,8.09-9.48,18.31-7.93,30.48,4.58,1.72-2.21,2-5.56.82-10.05,5.8,1.31,9.15,3.43,10.05,6.29L130.68,35,149.81,47l-2.7,15.2q11.16-5.39,5.39-18.88c7.11-5.64,2.86-12.1-12.67-19.53Z"/><path class="cls-10" d="M130.28,2.92Q108.33,6,88.84,29.57q24.4-22.68,46.34-25.83a27.88,27.88,0,0,0-4.9-.82Z"/><path class="cls-8" d="M128.48,49.26v.08a14.15,14.15,0,0,1,1.72.57c1.39-3.35,1.55-8.34.49-14.88l-2.12,8.34c-.9-2.86-4.25-5-10.05-6.29,5.31,3.68,8.58,7.76,10,12.18Z"/><path class="cls-3" d="M128.48,49.34v-.08c-1.39-4.41-4.66-8.5-10-12.18,3.19,7.6,3.92,13.89,2.37,18.72-10.38-15.94-20.43-18.23-30.16-7Q90.11,58.58,96.6,64L92.76,78.52l7.68-12.26a24.23,24.23,0,0,1-5.07-16.43,18.82,18.82,0,0,1,14.14,1.31,20.47,20.47,0,0,1,4.74-.82l.41,1.23.82,2.78,6.62,6.46,3.35-11.44,2.29,3.92.74-3.92Z"/><path class="cls-10" d="M128.31,56.95l1.14-5.72a22.92,22.92,0,0,1,9.15,5.23,15.15,15.15,0,0,0-3.84-4.09,26.66,26.66,0,0,0-4.58-2.45,14.15,14.15,0,0,0-1.72-.57l-.74,3.92L127,57.19l1.31-.24Z"/><path class="cls-9" d="M129.46,51.22l-1.14,5.72c5.15-.9,9.07-.16,11.77,2.37a15.66,15.66,0,0,0-1.47-2.86,22.91,22.91,0,0,0-9.15-5.23Z"/><path class="cls-6" d="M127,57.19l.74-3.92-2.29-3.92L122.1,60.79l-6.62-6.46,1.31,4c-6.7-1.47-12.1.08-16.26,4.74a9.42,9.42,0,0,1,.08-1.55c.57-5.39,3.6-8.83,8.91-10.38a18.82,18.82,0,0,0-14.14-1.31,24.22,24.22,0,0,0,5.07,16.43L92.76,78.52a17.46,17.46,0,0,0-12.18-2.37l-.16,8.66c4.17-2.21,8-1.8,11.52,1.14l2,1.23v14.39l11.93,12.26a40.11,40.11,0,0,0,18.63,5.72q14.83-5.15,19.86-20.84l2.21-17.49c3.68-2.53,7.27-3.43,10.87-2.7a55.39,55.39,0,0,0-3-10.62c-4.41.74-7.27,3.43-8.58,8.25L142,61.28l2.12-6.46-9.32-9.64v7.19a15.15,15.15,0,0,1,3.84,4.09,15.69,15.69,0,0,1,1.47,2.86c-2.7-2.53-6.62-3.27-11.77-2.37l-1.31.24Z"/><path class="cls-5" d="M130.19,49.92a26.66,26.66,0,0,1,4.58,2.45V45.18l9.32,9.64,2.12-6.46L130.68,35c1.06,6.54.9,11.52-.49,14.88Z"/><path class="cls-10" d="M114.67,51.55l-.41-1.23a20.47,20.47,0,0,0-4.74.82c-5.31,1.55-8.34,5-8.91,10.38,2.53-6.21,7.19-9.56,14.06-10Z"/><path class="cls-9" d="M115.48,54.33l-.82-2.78c-6.87.41-11.52,3.76-14.06,10a9.42,9.42,0,0,0-.08,1.55c4.17-4.66,9.56-6.21,16.26-4.74l-1.31-4Z"/><path class="cls-10" d="M75,64.38a20.6,20.6,0,0,1,2.21-.33Q64.61,36.84,78,49.92,59.34,26.26,75,64.38Z"/><path class="cls-8" d="M77.23,64.06a20.6,20.6,0,0,0-2.21.33c1,2.29,2,4.74,3.19,7.44,5.31-1.23,10.22,1,14.55,6.7L96.6,64q-6.5-5.39-5.88-15.2c9.73-11.2,19.78-8.91,30.16,7,1.55-4.82.82-11.11-2.37-18.72,1.15,4.5.9,7.85-.82,10.05C105.51,34.63,95.3,33.08,87.2,42.56c-1.23,7.76-.33,14.55,2.7,20.19L87,68.63c-2.86-3.27-6.13-4.82-9.81-4.58Z"/><path class="cls-7" d="M92.76,78.52c-4.33-5.72-9.24-7.93-14.55-6.7-.57,5.72-.33,10.3.74,13.81.49-.25,1-.57,1.47-.82l.16-8.66a17.46,17.46,0,0,1,12.18,2.37Z"/><path class="cls-3" d="M79,85.63c1.8,6.38,6.13,9.24,13,8.66V86c-3.51-2.94-7.36-3.35-11.52-1.14-.49.25-1,.57-1.47.82Z"/><path class="cls-7" d="M94,101.57V87.18l-2-1.23v16.75a69.27,69.27,0,0,0,14,11.11L94,101.57Z"/><path class="cls-3" d="M104.12,115.55c.82.65,1.64,1.31,2.53,2l-.82,3,19.53,9.32,10.87-4.25v4.58q-9.44,9.56-23.78,7.36c10.54,4.17,20.68,1.31,30.4-8.42l-3.11-12.26A35.84,35.84,0,0,0,149,98.46l-1.14-8.66c7.93,1.47,11.2-2.29,9.64-11.28-3.6-.74-7.19.16-10.87,2.7l-2.21,17.49q-5,15.69-19.86,20.84a40.11,40.11,0,0,1-18.63-5.72,69.36,69.36,0,0,1-14-11.12,60.75,60.75,0,0,0,12.18,12.83Z"/><path class="cls-7" d="M106.66,117.51c-.9-.65-1.72-1.31-2.53-2l-3.6,14.55c.65.57,1.31,1.14,2,1.72l3.27-11.28.82-3Z"/><path class="cls-8" d="M146.21,48.36l-2.12,6.46L142,61.28l3.92,14.88c1.31-4.82,4.17-7.52,8.58-8.25,8.09-7.11,7.44-15.37-2-24.6q5.76,13.48-5.39,18.88l2.7-15.2L130.68,35l15.53,13.32Z"/><path class="cls-10" d="M79.77,52.29q3.06-44,9.07-22.72-9.07-40.33-9.07,22.72Z"/><path class="cls-11" d="M29.75,188.2c.9.41,1.72.82,2.53,1.23l24.93-31.87a334.18,334.18,0,0,0,41.27-21.09,31.2,31.2,0,0,1-3-2.7,176,176,0,0,1-41,21.17L29.75,188.2Z"/><path class="cls-2" d="M32.28,189.43c-.82-.41-1.63-.82-2.53-1.23-1.23-.57-2.45-1.06-3.76-1.63L13.73,199.23a42.79,42.79,0,0,1,4.58,1.47,84.05,84.05,0,0,1,30.81,19.12,88.84,88.84,0,0,1,7,7.6l6.62-8.66A48.47,48.47,0,0,0,60,214.19a70.36,70.36,0,0,0-13.81-15.61,74.25,74.25,0,0,0-13.89-9.15Z"/><path class="cls-12" d="M13.73,199.23,26,186.57c-1.06-.41-2.21-.82-3.27-1.23L9.07,198l4.66,1.23Z"/><path class="cls-4" d="M13.73,199.23,9.07,198l5.64,7.19,3.6-4.49a42.79,42.79,0,0,0-4.58-1.47Z"/><path class="cls-13" d="M57.21,157.55,32.28,189.43a74.25,74.25,0,0,1,13.89,9.15l27.22-35.06q7.72,46.59,24.85,79.2l-7.44,39q18.76,13.12,36.86,17.08c17.57.24,28.77-6,33.43-18.72q-26.73,14.34-55.25,0a187.73,187.73,0,0,0,37.51,3.19c-4.5-2.37-6.37-6.13-5.56-11.36,7.76,7.76,15.53,10.46,23.29,8.17l2.21-10.14-17-35.39a302.88,302.88,0,0,0,30-69,341.78,341.78,0,0,1-4.25,35l11.28,6.29,15.28-23a86.21,86.21,0,0,1-12.1-30.08q-20.47-2.08-42.17-16.51c-14,13.49-29.26,13.16-45.85-.82a334.18,334.18,0,0,1-41.27,21.09Z"/><path class="cls-3" d="M44.87,222.85l4.25-3a84.05,84.05,0,0,0-30.81-19.12l2.7,2.61,14.47,13.73-4.33,3.51a23.72,23.72,0,0,0-10.46-.82Q43.23,232.38,53,252.93c8.17,9.23,16.84,16.1,25.91,20.6v7.76l6,6.54L77.4,321.26c-6.29-4.09-12.18-5.39-17.57-3.93-.08,1.06-.16,2.21-.16,3.35,8.42-.24,15.53,1.8,21.17,6.13l2-7,1.06-3.51,8.74-29.67-5.56-7.52,2.37-10.87c-10.22.65-20.51-4.5-30.73-15.45-5.48-12.51-11.44-21.41-18.06-26.89l4.17-3Z"/><path class="cls-4" d="M49.12,219.83l-4.25,3,11.28,4.58a88.84,88.84,0,0,0-7-7.6Z"/><path class="cls-7" d="M14.71,205.2,2.45,220.81C3.68,246.47,16.92,262.49,42,268.87A106.34,106.34,0,0,1,55.9,274.1c1.06.57,2.12,1.06,3.19,1.63a31.52,31.52,0,0,0,11.77,3.11l-25-11.36Q8.09,254,5.48,222.2L21,203.32l-2.7-2.61-3.6,4.49Z"/><path class="cls-6" d="M35.47,217.05,21,203.32,5.48,222.2Q8.05,254,45.85,267.48l25,11.36a21.17,21.17,0,0,0,4.58-.33l-4.25,8.66-4.33,8.58A30.07,30.07,0,0,1,74,302.3c-2.86.08-4.66,1.72-5.23,5.07,3.6,1.06,5.8.16,6.7-2.62a11.65,11.65,0,0,1,.9,2.86A9.24,9.24,0,0,1,74.95,314l-2.37-3.84-3.84,2.61.08-5.39-3.68-2.78c-3,3-4.74,7.27-5.31,12.75,5.39-1.47,11.28-.16,17.57,3.92l7.52-33.43-6-6.54v-7.76C69.8,269,61.13,262.17,53,252.93q-9.69-20.6-32.28-33.18a23.75,23.75,0,0,1,10.46.82l4.33-3.51Z"/><path class="cls-14" d="M46.18,198.58A70.36,70.36,0,0,1,60,214.19L78.46,197.6a242.73,242.73,0,0,1-5.07-34.08L46.18,198.58Z"/><path class="cls-14" d="M186.51,153.79a86.21,86.21,0,0,0,12.1,30.08l-15.28,23,3.43,1.88a99.46,99.46,0,0,1,27.62-26.56l-23.62-32a180.9,180.9,0,0,1-42.09-17.49,47.69,47.69,0,0,1-4.33,4.66q21.7,14.47,42.17,16.51Z"/><path class="cls-14" d="M172,200.54a341.56,341.56,0,0,0,4.25-35,302.88,302.88,0,0,1-30,69l17,35.39-2.21,10.14c-4.66,12.67-15.86,19-33.43,18.72q-18.14-3.92-36.86-17.08c-1.23-.82-2.45-1.72-3.68-2.61l5.56,7.52c2.21,1.88,4.41,3.51,6.62,5.07,1.06.74,2,1.39,3,2.13,8.25,5.39,15.94,8.83,23,10.38a18.47,18.47,0,0,0,2.94.49c1.39.16,2.78.25,4.09.33,1.14,0,2.21,0,3.27-.08,7.19-.57,13.65-3.6,19.45-9.07a33.44,33.44,0,0,0,2.86-3,61,61,0,0,0,8.66-12.75l2.45-4,2.61-4,2.53-4.17c-5.88-8.09-9.73-18.72-11.61-32a201.25,201.25,0,0,0,9.4-35.39Z"/><path class="cls-2" d="M148.66,132.63c-2-1.14-3.92-2.29-5.8-3.51-9.73,9.73-19.86,12.59-30.4,8.42a40,40,0,0,1-9.89-5.72l-4.09,4.66c16.59,14,31.87,14.3,45.85.82a47.69,47.69,0,0,0,4.33-4.66Z"/><path class="cls-6" d="M136.24,130.17V125.6l-10.87,4.25-19.53-9.32-3.27,11.28a40,40,0,0,0,9.89,5.72q14.34,2.21,23.78-7.36Z"/><path class="cls-11" d="M73.39,163.52a242.67,242.67,0,0,0,5.07,34.08,211.6,211.6,0,0,0,16.26,47l-5.23,23.62-2.37,10.87c1.23.9,2.45,1.8,3.68,2.62l7.44-39q-17.16-32.61-24.85-79.2Z"/><path class="cls-12" d="M98.48,136.47l4.09-4.66c-.74-.57-1.39-1.14-2-1.72-1.72,1.22-3.35,2.45-5.07,3.68a31.2,31.2,0,0,0,3,2.7Z"/><path class="cls-5" d="M75.44,278.51a21.17,21.17,0,0,1-4.58.33,31.52,31.52,0,0,1-11.77-3.11c6.21,3.43,10.22,7.28,12.1,11.44l4.25-8.66Z"/><path class="cls-12" d="M186.59,209c-1,1.39-2,2.78-2.86,4.25l8.25,7.52a49.27,49.27,0,0,1,3-4.9L186.59,209Z"/><path class="cls-4" d="M196.15,214.11c-.41.57-.74,1.22-1.14,1.8a49.27,49.27,0,0,0-3,4.9l10.54-.49-6.37-6.21Z"/><path class="cls-14" d="M161.09,280.07c-7.76,2.29-15.53-.41-23.29-8.17-.82,5.23,1.06,9,5.56,11.36a187.73,187.73,0,0,1-37.51-3.19q28.56,14.34,55.25,0Z"/><path class="cls-5" d="M169.1,276.06l-2.45,4,6.13,33.43.74,3.84,13.32,7.44c2-9.07,6.54-15.53,13.32-19.21l-4.41-4.82-12.59,16.67-7.93-5.15-6.13-36.21Z"/><polygon class="cls-6" points="187.32 296.49 185.03 295.27 180.87 302.87 187.32 296.49 187.32 296.49"/><path class="cls-15" d="M168.7,335.37c2,0,4.09.15,6.13.15a10.63,10.63,0,0,0,2-.2l-3.33-18-.74-3.84-14.79,3v-23.7a33.45,33.45,0,0,1-2.86,3v23.54l9.32-.41Q166.93,327.3,168.7,335.37Z"/><path class="cls-15" d="M137,320.68l-1.31-15.77c-1.06.08-2.12.08-3.27.08v12.42l-2.62,3,2,5.39a11.1,11.1,0,0,1,3.92-2.13,34.65,34.65,0,0,1,11.77-1.06,57.47,57.47,0,0,0-10.46-2Z"/><path class="cls-16" d="M135.67,323.71q2,6.27,3.71,12.54c4.79-.05,9.59-.3,14.35-.5s9.41-.41,14.11-.39h.86q-1.78-8.08-4.26-16.4l-9.32.41V295.84c-5.8,5.48-12.26,8.5-19.45,9.07L137,320.68a57.47,57.47,0,0,1,10.46,2A34.65,34.65,0,0,0,135.67,323.71Z"/><path class="cls-16" d="M158,292.81v23.7l14.79-3-6.13-33.43A61,61,0,0,1,158,292.81Z"/><path class="cls-15" d="M115.71,334.63c2.29.12,4.55.36,6.82.63q3.41-7.41,7.25-14.82l-1.47-15.77a18.47,18.47,0,0,1-2.94-.49v13l-9.89,5.48a86.7,86.7,0,0,1,8.75-1.72Q119.67,327.73,115.71,334.63Z"/><path class="cls-16" d="M85.43,334.28a93.85,93.85,0,0,1,13.07.2c4.53.31,9,.11,13.55.06,1.23,0,2.45,0,3.66.09q4-6.89,8.52-13.7a86.7,86.7,0,0,0-8.75,1.72l9.89-5.48v-13c-7.11-1.55-14.79-5-23-10.38l-5.56,28.85-10.46-2.21-4,14.11C83.38,334.46,84.4,334.35,85.43,334.28Z"/><path class="cls-16" d="M129.79,320.44l2.62-3V305c-1.31-.08-2.7-.16-4.09-.33l1.47,15.77Z"/><path class="cls-16" d="M99.3,291.67c-2.21-1.55-4.41-3.19-6.62-5.07l-8.74,29.67L94,315.21l5.31-23.54Z"/><path class="cls-5" d="M74.95,314a9.24,9.24,0,0,0,1.47-6.37,11.65,11.65,0,0,0-.9-2.86c-.9,2.78-3.11,3.68-6.7,2.62l-.08,5.39,3.84-2.61L74.95,314Z"/><path class="cls-15" d="M83.94,316.27l-1.06,3.51,3.43.65,10.46,2.21,5.56-28.85c-1-.74-2-1.39-3-2.13L94,315.21l-10.05,1.06Z"/><path class="cls-17" d="M79.4,334.77c1,0,2-.13,2.95-.22l4-14.11-3.43-.65-2,7-2.36,8Z"/><path class="cls-17" d="M139.38,336.25q-1.73-6.27-3.71-12.54a11.1,11.1,0,0,0-3.92,2.13q1.82,5.18,3.39,10.39C136.55,336.25,138,336.26,139.38,336.25Z"/><path class="cls-18" d="M113.44,63.07q-11.4,3.07-9.07,15.69a12.74,12.74,0,0,0,.33,1.72v.08h.08q7.23,1.59,11.52-1.23c1.72-7.11.74-12.5-2.78-16.18l-.08-.08Zm-8.83,15.69q-2.33-12.38,8.83-15.45v.08c3.35,3.68,4.25,8.91,2.62,15.77-2.86,1.72-6.54,2.12-11.12,1.14a13.11,13.11,0,0,1-.33-1.55Z"/><path class="cls-19" d="M114.5,77.21a15.23,15.23,0,0,1-9.89,1.55,13.13,13.13,0,0,0,.33,1.55c4.58,1,8.25.57,11.12-1.14,1.63-6.87.74-12.1-2.62-15.77l1.06,13.81Z"/><path class="cls-13" d="M104.61,78.77a15.22,15.22,0,0,0,9.89-1.55L113.44,63.4v-.08q-11.16,3.06-8.83,15.45Z"/><path class="cls-18" d="M130.85,63.07h-.08v.08a13.68,13.68,0,0,0-1,14.3,9.06,9.06,0,0,0,.57,1.31h.08a10.79,10.79,0,0,0,10.46-.82v-.08H141c-.9-9.89-4.25-14.88-10.13-14.79Zm.08.25H131c5.64.08,8.83,4.9,9.73,14.47a10.19,10.19,0,0,1-10.13.74c-.25-.41-.41-.74-.57-1.06v-.08a13.79,13.79,0,0,1,.9-14.06Z"/><path class="cls-13" d="M131,63.32h-.08a13.79,13.79,0,0,0-.9,14.06v.08a9.55,9.55,0,0,0,8.09-.74c-.25-5-2.62-9.4-7.11-13.4Z"/><path class="cls-19" d="M130,77.46c.16.33.33.65.57,1.06a10.19,10.19,0,0,0,10.13-.74c-.9-9.56-4.09-14.38-9.73-14.47,4.49,4,6.87,8.42,7.11,13.4a9.55,9.55,0,0,1-8.09.74Z"/><path d="M108.78,69.61c-.41,0-.82.33-1.23.9a5,5,0,0,0-.49,2.29,4.74,4.74,0,0,0,.49,2.29q.61,1,1.23,1a1.45,1.45,0,0,0,1.31-1,4,4,0,0,0,.57-2.29,4.15,4.15,0,0,0-.57-2.29,1.49,1.49,0,0,0-1.31-.9Z"/><path d="M131.42,72.8a4.74,4.74,0,0,0,.49,2.29c.41.65.82,1,1.31,1s.9-.33,1.23-1A4,4,0,0,0,135,72.8a4.15,4.15,0,0,0-.57-2.29,1.47,1.47,0,0,0-1.23-.9c-.49,0-.9.33-1.31.9a5,5,0,0,0-.49,2.29Z"/><path class="cls-13" d="M108.13,73.7c.25.41.49.57.74.57s.49-.16.74-.57a2.87,2.87,0,0,0,.25-1.31,3.4,3.4,0,0,0-.25-1.31.8.8,0,0,0-1.47,0,2.4,2.4,0,0,0-.33,1.31,2.07,2.07,0,0,0,.33,1.31Z"/><path class="cls-13" d="M132.48,73.7c.25.41.49.57.74.57s.49-.16.74-.57a2.86,2.86,0,0,0,.25-1.31,3.38,3.38,0,0,0-.25-1.31.8.8,0,0,0-1.47,0,2.4,2.4,0,0,0-.33,1.31,2.07,2.07,0,0,0,.33,1.31Z"/><path class="cls-18" d="M125,111a.57.57,0,0,0-.49-.57q-16.8-1-21.09-18.39c1.23-1,3-1.39,5.39-1.31a.49.49,0,0,0,.33-.08.62.62,0,0,0,.16-.33c0-.25,0-.33-.08-.41a.63.63,0,0,0-.41-.16c-2.86-.16-4.9.41-6.29,1.72v.08c-1.31,1.14-2,2.94-2,5.31a.42.42,0,0,0,.16.33.49.49,0,0,0,.74,0,.42.42,0,0,0,.16-.33,6.47,6.47,0,0,1,1.06-4c3.11,11.77,10.38,18,21.82,18.55A.45.45,0,0,0,125,111Z"/><path class="cls-18" d="M129.13,89a.62.62,0,0,0-.41.16c-2,2.37-4.17,3.6-6.21,3.68-2-.08-4.17-1.31-6.29-3.68a.49.49,0,0,0-.74,0,.42.42,0,0,0-.16.33.62.62,0,0,0,.16.33c2.37,2.7,4.66,4,7,4s4.66-1.31,7-4a.49.49,0,0,0,.08-.33.42.42,0,0,0-.16-.33.62.62,0,0,0-.33-.16Z"/><path class="cls-2" d="M141.51,170.43l3.66-.29,2.45,1.87.27,3.49-4,.32L144,178l4-.32.27,3.4-2.12,2.25-3.66.29-2.41-1.89-.71-9.1Zm3.39.6-3,.24-1.6,1.71.65,8.33,1.84,1.45,3-.24,1.63-1.73-.17-2.16-2.43.19.12,1.57-1.61.13-.56-7.15,1.61-.13.13,1.64,2.43-.19-.18-2.25Z"/><path class="cls-2" d="M155.94,182.59l-.32-4.08-1.08,2.66-1.48-2.46.32,4.08-4,.32-1-13.21,3.53-.28,2,3.1,1.52-3.37,3.53-.28,1,13.21Zm.26-7.65.53,6.73,2.3-.18-.9-11.5-2.16.17-2,4.35-2.61-4-2.16.17.9,11.5,2.3-.18-.53-6.73h0l2.43,4,1.77-4.33Z"/></g></g></svg>